<?xml version="1.0" encoding="utf-8"?>
<!-- Generator: Adobe Illustrator 15.0.0, SVG Export Plug-In . SVG Version: 6.00 Build 0)  -->
<!DOCTYPE svg PUBLIC "-//W3C//DTD SVG 1.1//EN" "http://www.w3.org/Graphics/SVG/1.1/DTD/svg11.dtd">
<svg version="1.1"  xmlns="http://www.w3.org/2000/svg" xmlns:xlink="http://www.w3.org/1999/xlink" x="0px" y="0px"
	 width="48px" height="48px" viewBox="0 0 48 48" enable-background="new 0 0 48 48" xml:space="preserve">
<g>
	<g>
		<g>
			<path fill="#B0BEC5" d="M30.616,6c-1.129,0-2.288,0.861-3.15,1.391C25.789,8.418,23.915,8.295,22,8.295
				c-0.472,0-0.953-0.026-1.438-0.073C19.597,8.125,18.48,8,17.395,8c-0.534,0-1.058,0.028-1.553,0.106
				c-2.912,0.457-2.946,3.7-4.778,5.425c-0.879,0.825-1.798,1.23-2.095,2.47c-0.294,1.228,0.183,2.749,0.316,3.941
				c0.139,1.237,0.346,2.435-0.185,3.579c-0.517,1.117-1.494,1.908-1.891,3.15c-0.538,1.68,0.092,3.207,0.419,4.845
				c0.308,1.54,0,2.446-0.185,3.934c-0.312,2.479,0.916,3.893,3.347,4.37c0.785,0.154,1.604,0.328,2.388,0.441
				c0.696,0.103,1.618-0.096,2.224,0.364c0.715,0.534,0.337,1.325,1.433,1.366C16.979,41.997,17.121,42,17.262,42
				c2.917,0,5.357-1.062,8.169-1.66c0.813-0.174,1.761-0.309,2.584-0.513c1.797-0.447,3.614-0.567,5.423-0.903
				c1.651-0.303,2.682-0.82,3.505-2.299c0.906-1.624,2.92-1.842,3.563-3.636c0.469-1.308,0.429-2.717,0.271-4.153
				c-0.157-1.44-0.565-2.065-1.175-3.295c-0.705-1.412,0.118-1.686,0.817-2.799c0.436-0.689,0.871-1.825,0.672-2.652
				c-0.13-0.552-0.387-1.316-0.703-1.788c-0.23-0.349-0.638-0.518-0.786-0.944c-0.252-0.713,0.293-1.57,0.261-2.309
				c-0.066-1.389-0.994-1.839-2.089-2.302c-1.438-0.61-1.861-1.252-1.712-2.731c0.278-2.764-2.295-3.151-4.461-3.758
				C31.281,6.076,30.951,6,30.616,6L30.616,6z"/>
		</g>
	</g>
</g>
<g>
	<path fill="#607D8B" d="M40.506,32.989c0.469-1.308,0.429-2.717,0.271-4.153c-0.157-1.44-0.565-2.065-1.175-3.295
		c-0.705-1.412,0.118-1.686,0.817-2.799c0.436-0.689,0.871-1.825,0.672-2.652c-0.13-0.552-0.387-1.316-0.703-1.788
		c-0.23-0.349-0.638-0.518-0.786-0.944c-0.252-0.713,0.293-1.57,0.261-2.309c-0.066-1.389-0.994-1.839-2.089-2.302
		c-1.438-0.61-1.861-1.252-1.712-2.731c0.278-2.764-2.295-3.151-4.461-3.758c-0.167-0.095-0.337-0.158-0.509-0.199
		c1.912,1.086,2.16,5.244,2.041,6.659c-0.068,0.773-0.39,1.403-0.308,2.253c0.076,0.789,0.403,1.446,0.408,2.252
		c0.013,1.904-0.866,3.04-0.226,4.936c0.566,1.687,0.805,3.022-1.207,3.898c-0.727,0.316-1.525,0.377-2.178,0.764
		c-0.855,0.505-1.027,0.752-2.02,0.949c-1.518,0.302-2.945,1.061-2.931,2.787c0.009,0.936,0.298,1.308-0.3,2.076
		c-0.465,0.599-1.282,1.416-2.075,1.5c-0.607,0.068-0.856-0.43-1.397-0.608c-0.638-0.208-1.246,0.032-1.8,0.361
		c-1.841,1.091-7.845,3.929-10.085,2.533C8.342,36,7.915,35.428,7.531,34.832c-0.03,0.197-0.06,0.4-0.087,0.618
		c-0.312,2.479,0.916,3.893,3.347,4.37c0.785,0.154,1.604,0.328,2.388,0.441c0.696,0.103,1.618-0.096,2.224,0.364
		c0.715,0.534,0.337,1.325,1.433,1.366C16.979,41.997,17.121,42,17.262,42c2.917,0,5.357-1.062,8.169-1.66
		c0.813-0.174,1.761-0.309,2.584-0.513c1.797-0.447,3.614-0.567,5.423-0.903c1.651-0.303,2.682-0.82,3.505-2.299
		C37.849,35.001,39.862,34.783,40.506,32.989z"/>
	<g>
		<g>
			<path fill="#607D8B" d="M21.918,17.763c-0.014-0.429,0.281-1.279,0.575-1.585c0.481-0.496,1.342-0.323,1.916-0.727
				c0.618-0.431,3.128-2.343,3.681-1.081c0.399,0.905-0.571,1.696,0.322,2.482c0.422,0.368,0.789,0.373,0.627,0.983
				c-0.109,0.418-0.553,0.779-0.578,1.21c-0.027,0.408,0.44,0.664,0.441,1.005c0.003,0.6-0.788,0.707-1.186,0.926
				c-0.688,0.383-1.399,0.911-1.948,1.477c-0.562,0.576-1.036,1.207-1.943,1.163c-1.837-0.094-1.034-2.286-1.187-3.44
				C22.528,19.342,21.943,18.624,21.918,17.763z"/>
		</g>
	</g>
	<g>
		<g>
			<path fill="#607D8B" d="M14.617,25.919c-0.15-0.221-0.284-0.766-0.235-1.023c0.085-0.425,0.595-0.624,0.759-1.03
				c0.18-0.436,0.847-2.289,1.565-1.814c0.516,0.34,0.273,1.081,1.011,1.192c0.345,0.048,0.539-0.073,0.661,0.304
				c0.088,0.257-0.026,0.598,0.106,0.829c0.126,0.225,0.456,0.2,0.573,0.38c0.204,0.313-0.173,0.636-0.309,0.886
				c-0.232,0.436-0.427,0.952-0.521,1.435c-0.102,0.494-0.134,0.984-0.623,1.269c-0.998,0.573-1.319-0.848-1.79-1.402
				C15.473,26.539,14.923,26.362,14.617,25.919z"/>
		</g>
	</g>
</g>
</svg>
