<?xml version="1.0" encoding="utf-8"?>
<!-- Generator: Adobe Illustrator 15.0.0, SVG Export Plug-In . SVG Version: 6.00 Build 0)  -->
<!DOCTYPE svg PUBLIC "-//W3C//DTD SVG 1.1//EN" "http://www.w3.org/Graphics/SVG/1.1/DTD/svg11.dtd">
<svg version="1.1"  xmlns="http://www.w3.org/2000/svg" xmlns:xlink="http://www.w3.org/1999/xlink" x="0px" y="0px"
	 width="48px" height="48px" viewBox="0 0 48 48" enable-background="new 0 0 48 48" xml:space="preserve">
<path fill="#0097A7" d="M43.283,17.079c-1.261-0.874-2.651-1.174-4.148-1.054c0,0,0,0,0,0.001c-2.742,0.219-4.941,2.06-4.941,2.06
	l-11.609,8.967c-0.474,0.105-0.809,0.352-0.976,0.417c-4.231,1.645-7.252,0.896-10.171,0.173c-0.62-0.153-1.227-0.304-1.823-0.424
	c-3.519-0.716-5.52,0.901-6.577,2.384c-1.347,1.889-1.925,5.507,1.733,8.117c3.831,2.732,7.392,0.469,8.473-1.047
	c0.719-1.008,1.268-2.717,0.953-4.074c0.116-0.004,0.297,0.004,0.575,0.037C16.249,32.823,23,33,23,33h2l19-15.324
	C44,17.676,43.486,17.22,43.283,17.079z M10.548,34.919c-1.1,1.205-2.913,1.355-4.313,0.355c-0.687-0.49-1.13-1.233-1.215-2.043
	c-0.084-0.797,0.176-1.572,0.733-2.186c1.122-1.229,3.145-1.439,4.506-0.467c0.629,0.448,1.021,1.127,1.104,1.912
	C11.456,33.364,11.159,34.249,10.548,34.919z"/>
<path fill="#00BCD4" d="M27.341,27l-2.558-2.589c0,0-4.869-4.679-6.042-5.599c-0.219-0.175-0.352-0.298-0.43-0.383
	c1.187-0.73,2.017-2.321,2.229-3.541c0.319-1.835-0.573-5.959-5.209-6.765c-4.428-0.768-6.596,2.186-6.993,4.471
	c-0.312,1.795-0.056,4.354,2.926,6.355c0.504,0.34,1.038,0.665,1.583,0.999c2.566,1.568,5.222,3.192,7.025,7.357
	c0.09,0.211,0.15,0.82,0.644,1.321C21.009,29.128,25,33,25,33h13.232c0,0,2.867-0.008,5.105-1.605c0.002,0,0.002,0,0.002,0
	c1.223-0.872,2.094-1.996,2.496-3.477C45.9,27.68,46,27,46,27H27.341z M16.244,16.489c-0.617,0.493-1.375,0.69-2.136,0.559
	c-1.649-0.286-2.92-1.873-2.834-3.534c0.044-0.828,0.413-1.558,1.04-2.058c0.635-0.509,1.476-0.716,2.307-0.571
	c1.696,0.294,2.863,1.689,2.778,3.318C17.352,15.109,16.93,15.941,16.244,16.489z"/>
<g>
	<path fill="#006064" d="M25,33c0,0-3.991-3.872-4.485-4.372c-0.21-0.213-0.332-0.442-0.42-0.655
		c-1.079,0.298-2.072,0.432-3.014,0.467c0.14,0.494,0.445,1.431,1.298,2.295c0.247,0.25,1.243,1.222,2.243,2.194
		C21.966,32.973,23,33,23,33H25z"/>
	<circle fill="#006064" cx="25.001" cy="29" r="1"/>
</g>
</svg>
